<mxfile host="app.diagrams.net" modified="2022-09-10T16:50:52.262Z" agent="5.0 (Macintosh; Intel Mac OS X 10_15_7) AppleWebKit/605.1.15 (KHTML, like Gecko) Version/14.1.2 Safari/605.1.15" etag="8eJeP9NyN5YagZ7lFW8y" version="20.3.0" type="github">
  <diagram id="V-NWXD8eRMeijzA_UnbU" name="PÃ gina-1">
    <mxGraphModel dx="946" dy="645" grid="1" gridSize="10" guides="1" tooltips="1" connect="1" arrows="1" fold="1" page="1" pageScale="1" pageWidth="827" pageHeight="1169" math="0" shadow="0">
      <root>
        <mxCell id="0" />
        <mxCell id="1" parent="0" />
        <mxCell id="iHFi_Ij1-04j6B7RkvNI-25" style="edgeStyle=orthogonalEdgeStyle;rounded=0;orthogonalLoop=1;jettySize=auto;html=1;fontSize=12;" edge="1" parent="1">
          <mxGeometry relative="1" as="geometry">
            <mxPoint x="340" y="270" as="targetPoint" />
            <mxPoint x="340" y="240" as="sourcePoint" />
          </mxGeometry>
        </mxCell>
        <mxCell id="iHFi_Ij1-04j6B7RkvNI-29" style="edgeStyle=orthogonalEdgeStyle;rounded=0;orthogonalLoop=1;jettySize=auto;html=1;exitX=0.833;exitY=1;exitDx=0;exitDy=0;fontSize=12;exitPerimeter=0;" edge="1" parent="1" source="iHFi_Ij1-04j6B7RkvNI-1">
          <mxGeometry relative="1" as="geometry">
            <mxPoint x="420" y="270" as="targetPoint" />
            <Array as="points">
              <mxPoint x="420" y="260" />
              <mxPoint x="420" y="260" />
            </Array>
          </mxGeometry>
        </mxCell>
        <mxCell id="iHFi_Ij1-04j6B7RkvNI-1" value="ERNIE-Vil&lt;br&gt;(Small/Large)" style="rounded=1;whiteSpace=wrap;html=1;fillColor=#e1d5e7;strokeColor=#9673a6;arcSize=23;" vertex="1" parent="1">
          <mxGeometry x="320" y="180" width="120" height="60" as="geometry" />
        </mxCell>
        <mxCell id="iHFi_Ij1-04j6B7RkvNI-3" style="edgeStyle=orthogonalEdgeStyle;rounded=0;orthogonalLoop=1;jettySize=auto;html=1;entryX=0.592;entryY=0;entryDx=0;entryDy=0;fontSize=18;entryPerimeter=0;exitX=0.592;exitY=1.033;exitDx=0;exitDy=0;exitPerimeter=0;" edge="1" parent="1" source="iHFi_Ij1-04j6B7RkvNI-2" target="iHFi_Ij1-04j6B7RkvNI-1">
          <mxGeometry relative="1" as="geometry" />
        </mxCell>
        <mxCell id="iHFi_Ij1-04j6B7RkvNI-12" value="72" style="edgeLabel;html=1;align=center;verticalAlign=middle;resizable=0;points=[];fontSize=12;" vertex="1" connectable="0" parent="iHFi_Ij1-04j6B7RkvNI-3">
          <mxGeometry x="-0.2" y="-2" relative="1" as="geometry">
            <mxPoint x="2" y="20" as="offset" />
          </mxGeometry>
        </mxCell>
        <mxCell id="iHFi_Ij1-04j6B7RkvNI-6" style="edgeStyle=orthogonalEdgeStyle;rounded=0;orthogonalLoop=1;jettySize=auto;html=1;exitX=0.333;exitY=1;exitDx=0;exitDy=0;fontSize=18;startArrow=none;exitPerimeter=0;" edge="1" parent="1" source="iHFi_Ij1-04j6B7RkvNI-2">
          <mxGeometry relative="1" as="geometry">
            <mxPoint x="360" y="180" as="targetPoint" />
          </mxGeometry>
        </mxCell>
        <mxCell id="iHFi_Ij1-04j6B7RkvNI-19" value="50" style="edgeLabel;html=1;align=center;verticalAlign=middle;resizable=0;points=[];fontSize=12;" vertex="1" connectable="0" parent="iHFi_Ij1-04j6B7RkvNI-6">
          <mxGeometry x="-0.2" relative="1" as="geometry">
            <mxPoint y="20" as="offset" />
          </mxGeometry>
        </mxCell>
        <mxCell id="iHFi_Ij1-04j6B7RkvNI-10" style="edgeStyle=orthogonalEdgeStyle;rounded=0;orthogonalLoop=1;jettySize=auto;html=1;entryX=0.858;entryY=0;entryDx=0;entryDy=0;fontSize=18;entryPerimeter=0;" edge="1" parent="1" target="iHFi_Ij1-04j6B7RkvNI-1">
          <mxGeometry relative="1" as="geometry">
            <mxPoint x="423" y="80" as="sourcePoint" />
          </mxGeometry>
        </mxCell>
        <mxCell id="iHFi_Ij1-04j6B7RkvNI-11" value="100&lt;br style=&quot;font-size: 12px;&quot;&gt;" style="edgeLabel;html=1;align=center;verticalAlign=middle;resizable=0;points=[];fontSize=12;" vertex="1" connectable="0" parent="iHFi_Ij1-04j6B7RkvNI-10">
          <mxGeometry x="-0.2333" y="-1" relative="1" as="geometry">
            <mxPoint x="5" y="22" as="offset" />
          </mxGeometry>
        </mxCell>
        <mxCell id="iHFi_Ij1-04j6B7RkvNI-20" style="edgeStyle=orthogonalEdgeStyle;rounded=0;orthogonalLoop=1;jettySize=auto;html=1;exitX=0.117;exitY=1;exitDx=0;exitDy=0;fontSize=12;exitPerimeter=0;" edge="1" parent="1" source="iHFi_Ij1-04j6B7RkvNI-2">
          <mxGeometry relative="1" as="geometry">
            <mxPoint x="334" y="180" as="targetPoint" />
          </mxGeometry>
        </mxCell>
        <mxCell id="iHFi_Ij1-04j6B7RkvNI-22" value="36" style="edgeLabel;html=1;align=center;verticalAlign=middle;resizable=0;points=[];fontSize=12;" vertex="1" connectable="0" parent="iHFi_Ij1-04j6B7RkvNI-20">
          <mxGeometry x="0.24" y="1" relative="1" as="geometry">
            <mxPoint y="-2" as="offset" />
          </mxGeometry>
        </mxCell>
        <mxCell id="iHFi_Ij1-04j6B7RkvNI-2" value="&lt;i&gt;&lt;font style=&quot;font-size: 18px;&quot;&gt;IMG&lt;/font&gt;&lt;/i&gt;" style="rounded=0;whiteSpace=wrap;html=1;" vertex="1" parent="1">
          <mxGeometry x="320" y="20" width="120" height="60" as="geometry" />
        </mxCell>
        <mxCell id="iHFi_Ij1-04j6B7RkvNI-15" value="Feature extraction" style="rounded=1;whiteSpace=wrap;html=1;fontSize=12;fillColor=#f5f5f5;fontColor=#333333;strokeColor=#666666;" vertex="1" parent="1">
          <mxGeometry x="320" y="90" width="120" height="20" as="geometry" />
        </mxCell>
        <mxCell id="iHFi_Ij1-04j6B7RkvNI-26" style="edgeStyle=orthogonalEdgeStyle;rounded=0;orthogonalLoop=1;jettySize=auto;html=1;fontSize=12;exitX=0.375;exitY=1;exitDx=0;exitDy=0;exitPerimeter=0;" edge="1" parent="1" source="iHFi_Ij1-04j6B7RkvNI-1">
          <mxGeometry relative="1" as="geometry">
            <mxPoint x="365" y="270" as="targetPoint" />
            <mxPoint x="350" y="250" as="sourcePoint" />
            <Array as="points" />
          </mxGeometry>
        </mxCell>
        <mxCell id="iHFi_Ij1-04j6B7RkvNI-27" style="edgeStyle=orthogonalEdgeStyle;rounded=0;orthogonalLoop=1;jettySize=auto;html=1;fontSize=12;exitX=0.608;exitY=0.983;exitDx=0;exitDy=0;exitPerimeter=0;" edge="1" parent="1" source="iHFi_Ij1-04j6B7RkvNI-1">
          <mxGeometry relative="1" as="geometry">
            <mxPoint x="393" y="270" as="targetPoint" />
            <mxPoint x="390" y="250" as="sourcePoint" />
            <Array as="points" />
          </mxGeometry>
        </mxCell>
        <mxCell id="iHFi_Ij1-04j6B7RkvNI-31" style="edgeStyle=orthogonalEdgeStyle;rounded=0;orthogonalLoop=1;jettySize=auto;html=1;exitX=0.5;exitY=1;exitDx=0;exitDy=0;fontSize=12;" edge="1" parent="1" source="iHFi_Ij1-04j6B7RkvNI-30">
          <mxGeometry relative="1" as="geometry">
            <mxPoint x="380" y="310" as="targetPoint" />
          </mxGeometry>
        </mxCell>
        <mxCell id="iHFi_Ij1-04j6B7RkvNI-30" value="Weight Average" style="rounded=1;whiteSpace=wrap;html=1;fontSize=12;fillColor=#fff2cc;strokeColor=#d6b656;" vertex="1" parent="1">
          <mxGeometry x="320" y="270" width="120" height="20" as="geometry" />
        </mxCell>
        <mxCell id="iHFi_Ij1-04j6B7RkvNI-32" value="&lt;font style=&quot;font-size: 8px;&quot;&gt;Hateful&lt;br&gt;0.15&lt;br&gt;&lt;/font&gt;" style="rounded=0;whiteSpace=wrap;html=1;fontSize=12;fillColor=#d5e8d4;strokeColor=#82b366;" vertex="1" parent="1">
          <mxGeometry x="330" y="310" width="50" height="30" as="geometry" />
        </mxCell>
        <mxCell id="iHFi_Ij1-04j6B7RkvNI-33" value="&lt;font style=&quot;font-size: 8px;&quot;&gt;Not Hateful&lt;br&gt;0.85&lt;br&gt;&lt;/font&gt;" style="rounded=0;whiteSpace=wrap;html=1;fontSize=12;fillColor=#f8cecc;strokeColor=#b85450;" vertex="1" parent="1">
          <mxGeometry x="380" y="310" width="50" height="30" as="geometry" />
        </mxCell>
      </root>
    </mxGraphModel>
  </diagram>
</mxfile>
